# xmcd CD database file
#
# Track frame offsets:
#	150
#	3030
#	24730
#	51480
#	74240
#	83620
#	103432
#	118255
#	146585
#	175380
#	194007
#
# Disc length: 2969 seconds
#
# Revision: 1
# Processed by: cddbd v1.5.2PL0 Copyright (c) Steve Scherf et al.
# Submitted via: CDex 1.70beta3
#
DISCID=a80b970b
DTITLE=冨田ラボ - Shipbuilding
DYEAR=2003
DGENRE=Blues
TTITLE0=Welcome
TTITLE1=God bless you!(feat.松任谷由実)
TTITLE2=眠りの森 feat. ハナレグミ
TTITLE3=耐え難くも甘い季節 feat. 畠山美由紀
TTITLE4=shipbuilding
TTITLE5=香りと影(feat.キリンジ) 
TTITLE6=Shipyard (edition 1)
TTITLE7=太陽の顔(feat.saigenji)
TTITLE8=道(feat.bird) 
TTITLE9=Mizzenmast(edition1)
TTITLE10=海を渡る橋 
EXTD=YEAR: 2003
EXTT0=
EXTT1=
EXTT2=
EXTT3=
EXTT4=
EXTT5=
EXTT6=
EXTT7=
EXTT8=
EXTT9=
EXTT10=
PLAYORDER=
